<?xml version="1.0" encoding="utf-8"?>
<!-- Generator: Adobe Illustrator 15.1.0, SVG Export Plug-In . SVG Version: 6.00 Build 0)  -->
<!DOCTYPE svg PUBLIC "-//W3C//DTD SVG 1.1//EN" "http://www.w3.org/Graphics/SVG/1.1/DTD/svg11.dtd">
<svg version="1.1"
	 id="svg11699" xmlns:inkscape="http://www.inkscape.org/namespaces/inkscape" xmlns:sodipodi="http://sodipodi.sourceforge.net/DTD/sodipodi-0.dtd" sodipodi:docname="New document 65" inkscape:version="0.48.4 r9939" xmlns:rdf="http://www.w3.org/1999/02/22-rdf-syntax-ns#" xmlns:svg="http://www.w3.org/2000/svg" xmlns:cc="http://creativecommons.org/ns#" xmlns:dc="http://purl.org/dc/elements/1.1/"
	 xmlns="http://www.w3.org/2000/svg" xmlns:xlink="http://www.w3.org/1999/xlink" x="0px" y="0px" width="40px" height="40px"
	 viewBox="0 0 40 40" enable-background="new 0 0 40 40" xml:space="preserve">
<sodipodi:namedview  fit-margin-bottom="0" inkscape:pageshadow="2" fit-margin-right="0" inkscape:pageopacity="0.0" inkscape:window-x="1649" inkscape:window-y="24" inkscape:current-layer="layer1" inkscape:window-maximized="1" inkscape:document-units="px" inkscape:window-height="1056" inkscape:window-width="1871" id="base" pagecolor="#ffffff" inkscape:zoom="0.35" bordercolor="#666666" borderopacity="1.0" showgrid="false" inkscape:cx="1235.6593" inkscape:cy="-225.19282" fit-margin-top="0" fit-margin-left="0">
	</sodipodi:namedview>
<path fill="#F5E5CC" d="M30.105,26.906c-1.521,0-2.864,0.691-3.781,1.765l-11.797-6.812c0.23-0.575,0.366-1.2,0.366-1.858
	c0-0.564-0.114-1.1-0.288-1.605l11.886-6.863c0.909,0.958,2.188,1.562,3.614,1.562c2.763,0,5.002-2.238,5.002-5
	c0-2.761-2.239-5-5.002-5c-2.76,0-4.998,2.239-4.998,5c0,0.521,0.104,1.015,0.25,1.487L13.43,16.467
	c-0.905-0.904-2.155-1.466-3.537-1.466c-2.762,0-5,2.238-5,5c0,2.763,2.238,5,5,5c1.283,0,2.441-0.497,3.326-1.291l12.06,6.963
	c-0.102,0.396-0.172,0.808-0.172,1.233c0,2.762,2.238,5,5,5s5-2.237,5-5C35.107,29.146,32.868,26.906,30.105,26.906z"/>
</svg>
